<?xml version="1.0" standalone="no"?><!DOCTYPE svg PUBLIC "-//W3C//DTD SVG 1.1//EN" "http://www.w3.org/Graphics/SVG/1.1/DTD/svg11.dtd"><svg t="1769685665470" class="icon" viewBox="0 0 1024 1024" version="1.1" xmlns="http://www.w3.org/2000/svg" p-id="5946" xmlns:xlink="http://www.w3.org/1999/xlink" width="200" height="200"><path d="M527.945143 0l4.242286 1.097143 376.173714 129.097143c37.302857 4.022857 66.56 35.693714 66.56 72.630857v468.992c0 38.546286-65.974857 119.222857-142.336 184.832-39.277714 33.938286-102.4 71.826286-179.858286 110.957714-47.396571 23.990857-108.105143 51.712-110.665143 51.712a24.576 24.576 0 0 1-9.435428 3.876572l-1.609143 0.292571-1.609143 0.512h-9.654857l-2.340572-0.146286a30.281143 30.281143 0 0 1-8.484571-2.925714 2253.238857 2253.238857 0 0 1-129.024-61.293714c-70.948571-36.571429-128-71.387429-164.352-102.912C139.264 791.332571 73.142857 710.436571 73.142857 671.817143v-469.577143c0-36.937143 29.110857-67.730286 64-71.826286L518.217143 0.512 527.945143 0z m-3.876572 112.859429L186.002286 228.205714v433.737143l1.316571 2.413714c13.897143 22.893714 47.030857 61.878857 91.574857 101.814858l12.434286 10.971428c45.714286 39.497143 133.924571 86.454857 238.226286 134.217143l-5.485715-2.56 16.091429-7.314286c89.234286-41.837714 162.816-81.481143 206.701714-116.443428l9.581715-8.045715c54.564571-46.811429 93.403429-93.037714 108.105142-119.003428l-2.267428 3.657143V228.205714L524.068571 112.859429z m-0.146285 126.683428c86.893714 0 157.476571 68.242286 157.476571 152.502857 0 62.244571-39.131429 117.174857-96.402286 140.434286l-8.777142 3.218286v27.355428h54.784c25.526857 0 46.08 19.748571 49.371428 44.836572l0.438857 6.948571c0 28.16-21.942857 51.126857-49.810285 51.126857l-54.857143-0.073143 0.073143 81.408c0 24.795429-20.041143 44.470857-45.275429 47.542858l-7.021714 0.438857c-28.379429 0-52.224-20.992-52.224-47.981715l-0.073143-211.529142-8.777143-3.145143A152.576 152.576 0 0 1 366.884571 403.748571l-0.512-11.702857c-0.073143-84.260571 70.582857-152.576 157.476572-152.576z m0 93.110857c-34.377143 0-62.244571 26.916571-62.244572 59.684572 0 32.621714 27.648 59.099429 62.171429 59.099428 34.669714 0 62.171429-26.624 62.171428-59.026285 0-32.841143-27.794286-59.757714-62.171428-59.757715z" p-id="5947"></path></svg>